<svg width="40" height="40" viewBox="0 0 40 40" fill="none" xmlns="http://www.w3.org/2000/svg">
<path d="M7.5 5V35H32.5V5H7.5ZM6.25 2.5H33.75C34.0815 2.5 34.3995 2.6317 34.6339 2.86612C34.8683 3.10054 35 3.41848 35 3.75V36.25C35 36.5815 34.8683 36.8995 34.6339 37.1339C34.3995 37.3683 34.0815 37.5 33.75 37.5H6.25C5.91848 37.5 5.60054 37.3683 5.36612 37.1339C5.1317 36.8995 5 36.5815 5 36.25V3.75C5 3.41848 5.1317 3.10054 5.36612 2.86612C5.60054 2.6317 5.91848 2.5 6.25 2.5ZM12.5 20H27.5V22.5H12.5V20ZM12.5 12.5H20V15H12.5V12.5ZM12.5 27.5H27.5V30H12.5V27.5Z" fill="#FF4003"/>
</svg>
