<svg width="36" height="36" viewBox="0 0 36 36" fill="none" xmlns="http://www.w3.org/2000/svg">
<g clip-path="url(#clip0_998_25698)">
<path d="M29.6036 9.40448C30.5222 5.08275 28.3109 0.950972 24.6644 0.175893C21.018 -0.599185 17.3173 2.27594 16.3986 6.59767C15.48 10.9194 17.6914 15.0512 21.3378 15.8263C24.9843 16.6013 28.685 13.7262 29.6036 9.40448Z" fill="#484848"/>
<path d="M9.72433 14.687V16.266C7.31033 16.791 4.34333 18.117 3.89533 20.007C2.49333 25.919 2.87033 35.081 2.87033 35.212V35.346C2.87033 36 3.53333 36 4.18633 36H20.2833C20.9363 36 21.5983 36 21.5983 35.346V20.007C21.5983 18.288 20.1853 16.569 16.9663 16.173V14.687H9.72433Z" fill="#BCBCBC"/>
<path d="M26.2763 13.303V16.266C28.6903 16.791 31.6573 18.117 32.1053 20.007C33.5063 25.92 33.1303 35.082 33.1303 35.212V35.346C33.1303 36 32.4673 36 31.8143 36H15.7173C15.0643 36 14.4023 36 14.4023 35.346V20.007C14.4023 18.288 15.8153 16.569 19.0343 16.173V14.687L26.2763 13.303Z" fill="#484848"/>
<path d="M14.6556 15.8251C18.3021 15.05 20.5135 10.9182 19.5948 6.5965C18.6762 2.27477 14.9755 -0.600357 11.3291 0.174721C7.6826 0.9498 5.47124 5.08158 6.38986 9.40331C7.30847 13.725 11.0092 16.6002 14.6556 15.8251Z" fill="#BCBCBC"/>
<path d="M19.0923 16.0881C17.7823 16.4691 15.6513 16.6341 13.1943 15.7061C10.6013 14.7261 8.2163 13.7621 7.2863 13.4381C6.4403 13.1431 4.2813 13.4051 3.8003 14.2861C3.3193 15.1671 3.0473 16.7711 4.2373 17.9451C5.4273 19.1191 11.6953 21.4361 13.4673 22.4781C14.3953 23.0241 14.3413 26.3011 14.3953 28.9771C14.4783 33.0201 21.7783 15.3071 19.0923 16.0881Z" fill="#484848"/>
<path d="M12.2328 25.2831C13.5638 25.5811 15.8368 26.0941 18.2318 25.0141C20.7588 23.8741 22.9438 22.282 23.8508 21.901C24.6768 21.554 26.4218 21.2181 27.3828 22.5301C27.9768 23.3401 28.2898 24.9641 27.1758 26.2091C26.0608 27.4551 21.6788 30.1281 18.4368 30.9111C15.6878 31.5751 11.4698 31.5111 10.1238 30.1181C8.0228 27.9431 10.4048 24.8731 12.2328 25.2831ZM24.9908 17.2351C24.9908 15.2831 26.7148 14.2191 28.7298 13.4381C29.5648 13.1141 31.7348 13.4051 32.2158 14.2861C32.6968 15.1671 32.9688 16.7711 31.7788 17.9451C30.5888 19.1191 24.9908 20.2391 24.9908 17.2351Z" fill="#BCBCBC"/>
</g>
<defs>
<clipPath id="clip0_998_25698">
<rect width="36" height="36" fill="white"/>
</clipPath>
</defs>
</svg>
