<svg width="40" height="40" viewBox="0 0 40 40" fill="none" xmlns="http://www.w3.org/2000/svg">
<path d="M22.5 25C18.4896 25 14.9219 24.6484 11.7969 23.9453C8.67188 23.2422 6.61458 22.3568 5.625 21.2891C9.16667 22.0964 13.125 22.5 17.5 22.5C20.7031 22.5 23.7435 22.2786 26.6211 21.8359C29.4987 21.3932 31.8229 20.7812 33.5938 20C35.3646 19.2188 36.25 18.3854 36.25 17.5V15H37.5C38.2552 15.1562 38.8607 15.4753 39.3164 15.957C39.7721 16.4388 40 16.9531 40 17.5V20C40 20.9115 39.2188 21.7513 37.6562 22.5195C36.0938 23.2878 33.9714 23.8932 31.2891 24.3359C28.6068 24.7786 25.6771 25 22.5 25ZM20 15C17.474 15 15.1562 14.8633 13.0469 14.5898C10.9375 14.3164 9.25781 13.9909 8.00781 13.6133C6.75781 13.2357 5.69661 12.832 4.82422 12.4023C3.95182 11.9727 3.34635 11.6016 3.00781 11.2891C2.66927 10.9766 2.5 10.7552 2.5 10.625V9.10156C3.82812 10.0911 6.11979 10.9049 9.375 11.543C12.6302 12.181 16.1719 12.5 20 12.5C23.8281 12.5 27.3698 12.181 30.625 11.543C33.8802 10.9049 36.1719 10.0911 37.5 9.10156V10C37.5 10.8854 36.7188 11.7122 35.1562 12.4805C33.5938 13.2487 31.4714 13.8607 28.7891 14.3164C26.1068 14.7721 23.1771 15 20 15ZM20 10C16.8229 10 13.8932 9.77214 11.2109 9.31641C8.52865 8.86068 6.40625 8.2487 4.84375 7.48047C3.28125 6.71224 2.5 5.87891 2.5 4.98047C2.5 4.08203 3.28125 3.2487 4.84375 2.48047C6.40625 1.71224 8.52865 1.10677 11.2109 0.664062C13.8932 0.221354 16.8229 0 20 0C23.1771 0 26.1068 0.221354 28.7891 0.664062C31.4714 1.10677 33.5938 1.71224 35.1562 2.48047C36.7188 3.2487 37.5 4.08203 37.5 4.98047C37.5 5.87891 36.7188 6.71224 35.1562 7.48047C33.5938 8.2487 31.4714 8.86068 28.7891 9.31641C26.1068 9.77214 23.1771 10 20 10ZM1.25 12.5C1.25 13.3854 2.13542 14.2188 3.90625 15C5.67708 15.7812 8.0013 16.3932 10.8789 16.8359C13.7565 17.2786 16.7969 17.5 20 17.5C22.9167 17.5 25.7031 17.3112 28.3594 16.9336C31.0156 16.556 33.2292 16.0417 35 15.3906C34.974 15.4427 34.9284 15.5273 34.8633 15.6445C34.7982 15.7617 34.5964 15.9766 34.2578 16.2891C33.9193 16.6016 33.5091 16.901 33.0273 17.1875C32.5456 17.474 31.8424 17.7995 30.918 18.1641C29.9935 18.5286 28.9518 18.8346 27.793 19.082C26.6341 19.3294 25.1562 19.5443 23.3594 19.7266C21.5625 19.9089 19.6094 20 17.5 20C14.3229 20 11.3932 19.7721 8.71094 19.3164C6.02865 18.8607 3.90625 18.2487 2.34375 17.4805C0.78125 16.7122 0 15.8854 0 15V12.5C0 11.875 0.416667 11.263 1.25 10.6641V12.5ZM1.25 25.6641V27.5C1.25 28.3854 2.13542 29.2188 3.90625 30C5.67708 30.7812 8.0013 31.3932 10.8789 31.8359C13.7565 32.2786 16.7969 32.5 20 32.5C22.8646 32.5 25.6185 32.3177 28.2617 31.9531C30.9049 31.5885 33.125 31.0807 34.9219 30.4297C34.5312 31.7318 32.6693 32.819 29.3359 33.6914C26.0026 34.5638 22.0573 35 17.5 35C14.3229 35 11.3932 34.7786 8.71094 34.3359C6.02865 33.8932 3.90625 33.2878 2.34375 32.5195C0.78125 31.7513 0 30.9115 0 30V27.5C0 26.875 0.416667 26.263 1.25 25.6641ZM22.5 27.5C25.3906 27.5 28.1576 27.3112 30.8008 26.9336C33.444 26.556 35.651 26.0417 37.4219 25.3906C37.0573 26.6927 35.2083 27.7865 31.875 28.6719C28.5417 29.5573 24.5833 30 20 30C16.8229 30 13.8932 29.7786 11.2109 29.3359C8.52865 28.8932 6.40625 28.2878 4.84375 27.5195C3.28125 26.7513 2.5 25.9115 2.5 25V22.5C2.5 21.9271 2.8776 21.3411 3.63281 20.7422C4.02344 20.8724 4.36198 20.9766 4.64844 21.0547C4.15365 21.5495 3.90625 22.0312 3.90625 22.5C3.90625 23.3854 4.77865 24.2188 6.52344 25C8.26823 25.7812 10.5729 26.3932 13.4375 26.8359C16.3021 27.2786 19.3229 27.5 22.5 27.5ZM36.25 32.5V30.6641C37.0833 31.263 37.5 31.875 37.5 32.5V35C37.5 35.9115 36.7188 36.7513 35.1562 37.5195C33.5938 38.2878 31.4714 38.8932 28.7891 39.3359C26.1068 39.7786 23.1771 40 20 40C15.4167 40 11.4583 39.5573 8.125 38.6719C4.79167 37.7865 2.94271 36.6927 2.57812 35.3906C4.34896 36.0417 6.55599 36.556 9.19922 36.9336C11.8424 37.3112 14.6094 37.5 17.5 37.5C20.7031 37.5 23.7435 37.2786 26.6211 36.8359C29.4987 36.3932 31.8229 35.7812 33.5938 35C35.3646 34.2188 36.25 33.3854 36.25 32.5Z" fill="#BCBCBC"/>
</svg>
